<svg width="300" height="89" viewBox="0 0 300 89" fill="none" xmlns="http://www.w3.org/2000/svg">
<g clip-path="url(#clip0_147_2253)">
<path d="M15.6719 33.5397L15.6826 0.00124359H0L0.0628396 59.608L0.0785495 59.5888C0.0760689 59.7081 0.0727616 59.8257 0.0727616 59.9456C0.0727616 75.8895 12.892 88.8203 28.712 88.8203C44.5244 88.8203 57.3486 75.8895 57.3486 59.9456C57.3486 43.9978 44.5244 31.061 28.712 31.061C25.8485 31.061 23.2433 31.4629 20.699 32.0997L20.6965 49.6003C22.9349 47.8103 25.7501 46.7463 28.8276 46.7463C36.0773 46.7463 41.9553 52.6707 41.9553 59.9798C41.9553 67.2914 36.0773 73.2191 28.8276 73.2191C21.5779 73.2191 15.6826 67.2914 15.6826 59.9798L15.6719 33.5397Z" fill="#0070B8"/>
<path d="M299.996 87.6667V56.0517C299.996 41.8185 289.472 31.4247 273.12 31.4247C258.111 31.4247 246.465 43.1759 246.465 60.7896C246.465 75.1294 255.651 88.1152 272.443 88.1152C274.53 88.1152 277.76 87.7684 280.586 86.928C280.58 82.3426 280.58 75.6004 280.575 71.8046C278.192 72.6333 275.457 73.4361 273.343 73.4361C266.065 73.4361 260.803 67.5668 260.803 60.2276C260.803 52.2116 266.065 45.8871 272.896 45.8871C280.734 45.8871 285.662 50.1766 285.662 56.7278V87.6667H299.996Z" fill="#0070B8"/>
<path d="M114.095 87.6431V56.0282C114.095 41.7984 103.567 31.4029 87.2186 31.4029C72.2091 31.4029 60.5664 43.1547 60.5664 60.7701C60.5664 75.1167 69.7484 88.0967 86.5447 88.0967C88.6506 88.0967 91.9241 87.7407 94.7733 86.8811C94.7793 82.9494 94.7793 77.0609 94.7793 71.7418C92.3739 72.5922 89.5866 73.4184 87.4417 73.4184C80.1624 73.4184 74.8988 67.5465 74.8988 60.205C74.8988 52.1864 80.1624 45.8636 86.9945 45.8636C94.8337 45.8636 99.7609 50.1554 99.7609 56.7052V87.6431H114.095Z" fill="#0070B8"/>
<path d="M117.744 32.7672V70.7076C117.744 82.6763 126.93 89 140.259 89C153.578 89 162.764 82.6763 162.764 70.7076V32.7672H148.427V65.7388C148.427 71.3829 145.517 74.546 140.259 74.546C134.988 74.546 132.081 71.3829 132.081 65.7388V32.7672H117.744Z" fill="#0070B8"/>
<path d="M181.66 87.6426V54.6762C181.66 49.0226 184.249 45.863 189.512 45.863C194.774 45.863 197.353 49.0226 197.353 54.6762V87.6426H212.358V50.9469C214.367 47.2202 217.506 45.9804 220.197 45.863C225.457 45.863 228.037 49.0226 228.037 54.6762V87.6426H243.036V49.703C243.036 37.7361 233.189 31.4023 222.432 31.4023C215.713 31.4023 209.891 34.1236 205.19 39.7668C201.16 35.1356 194.774 31.4023 188.95 31.4023C175.615 31.4023 166.653 37.7361 166.653 49.703V87.6426H181.66Z" fill="#0070B8"/>
</g>
<defs>
<clipPath id="clip0_147_2253">
<rect width="300" height="89" fill="white"/>
</clipPath>
</defs>
</svg>
